<svg xmlns:mydata="http://www.w3.org/2000/svg" mydata:contrastcolor="D48BC8" mydata:template="BlackAndHighlightColorHex2" mydata:presentation="2.5" mydata:layoutType="undefined" mydata:specialFontId="undefined" mydata:id1="005" mydata:id2="369" mydata:companyName="TMB" mydata:companyTagline="SERVICE EDUCATION" version="1.1" xmlns="http://www.w3.org/2000/svg" xmlns:xlink="http://www.w3.org/1999/xlink" width="550" height="940"><g fill="none" fill-rule="nonzero" stroke="none" stroke-width="1" stroke-linecap="butt" stroke-linejoin="miter" stroke-miterlimit="10" stroke-dasharray="" stroke-dashoffset="0" font-family="none" font-weight="none" font-size="none" text-anchor="none" style="mix-blend-mode: normal"><g data-paper-data="{&quot;isGlobalGroup&quot;:true}"><g data-paper-data="{&quot;isSecondaryText&quot;:true}" fill="#0076a8"><path d="M267.39297,280.47378c-0.34725,-0.26457 -0.74411,-0.49608 -1.17404,-0.66143c-0.39686,-0.14882 -0.77718,-0.29765 -1.14097,-0.4134c-0.24804,-0.08268 -0.463,-0.16536 -0.66143,-0.24804c-0.18189,-0.06614 -0.33072,-0.14882 -0.463,-0.21497c-0.09922,-0.06614 -0.16536,-0.14882 -0.21497,-0.21497c-0.04961,-0.08268 -0.06614,-0.16536 -0.06614,-0.29765c0,-0.14882 0.03307,-0.26457 0.08268,-0.33072c0.06614,-0.11575 0.14882,-0.18189 0.24804,-0.24804c0.11575,-0.06614 0.2315,-0.11575 0.36379,-0.13229c0.14882,-0.03307 0.29765,-0.04961 0.44647,-0.04961c0.28111,0 0.57875,0.08268 0.89294,0.2315c0.29765,0.14882 0.54568,0.34725 0.74411,0.59529c0.04961,0.08268 0.14882,0.13229 0.24804,0.13229c0.11575,0.01654 0.21497,-0.03307 0.28111,-0.11575l1.63705,-1.80241c0.06614,-0.08268 0.09922,-0.16536 0.09922,-0.26457c0,-0.08268 -0.04961,-0.18189 -0.11575,-0.24804c-0.49608,-0.47954 -1.09137,-0.84333 -1.76933,-1.09137c-0.66143,-0.24804 -1.32287,-0.38032 -1.96777,-0.38032c-0.52915,0 -1.05829,0.08268 -1.58744,0.21497c-0.52915,0.14882 -1.00869,0.36379 -1.43862,0.67797c-0.42993,0.31418 -0.77718,0.71104 -1.04176,1.20712c-0.28111,0.49608 -0.4134,1.09137 -0.4134,1.76933c0,0.54568 0.08268,1.02522 0.26457,1.42208c0.18189,0.39686 0.4134,0.74411 0.69451,1.02522c0.28111,0.26457 0.61183,0.49608 0.97561,0.66143c0.33072,0.16536 0.67797,0.31418 1.04176,0.42993c0.34725,0.11575 0.66143,0.21497 0.92601,0.31418c0.24804,0.09922 0.463,0.19843 0.62836,0.29765c0.14882,0.09922 0.26457,0.19843 0.33072,0.31418c0.06614,0.08268 0.08268,0.18189 0.08268,0.33072c0,0.14882 -0.01654,0.29765 -0.08268,0.39686c-0.04961,0.09922 -0.11575,0.18189 -0.19843,0.24804c-0.09922,0.06614 -0.2315,0.11575 -0.36379,0.14882c-0.14882,0.03307 -0.31418,0.06614 -0.47954,0.06614c-0.36379,0 -0.74411,-0.11575 -1.1079,-0.31418c-0.38032,-0.19843 -0.69451,-0.44647 -0.92601,-0.74411c-0.06614,-0.08268 -0.16536,-0.13229 -0.26457,-0.13229c-0.09922,0 -0.19843,0.03307 -0.26457,0.11575l-1.68666,1.78587c-0.13229,0.14882 -0.13229,0.36379 0,0.49608c0.49608,0.56222 1.14097,0.99215 1.90162,1.2898c0.76065,0.28111 1.53783,0.42993 2.34809,0.42993c0.54568,0 1.09137,-0.06614 1.62051,-0.2315c0.52915,-0.16536 1.00869,-0.4134 1.43862,-0.74411c0.4134,-0.33072 0.76065,-0.76065 1.00869,-1.27326c0.24804,-0.51261 0.36379,-1.12444 0.36379,-1.81894c0,-0.62836 -0.11575,-1.15751 -0.36379,-1.58744c-0.2315,-0.4134 -0.52915,-0.76065 -0.8764,-1.04176z" data-paper-data="{&quot;glyphName&quot;:&quot;S&quot;,&quot;glyphIndex&quot;:0,&quot;firstGlyphOfWord&quot;:true,&quot;word&quot;:1}"></path><path d="M280.71426,284.29356h-4.74579v-1.93469h4.21664c0.13229,0 0.2315,-0.11575 0.2315,-0.24804v-2.24887c0,-0.13229 -0.09922,-0.24804 -0.2315,-0.24804h-4.21664v-1.71973h4.48121c0.11575,0 0.21497,-0.09922 0.21497,-0.2315v-2.36463c0,-0.13229 -0.09922,-0.24804 -0.21497,-0.24804h-7.19309c-0.11575,0 -0.2315,0.11575 -0.2315,0.24804v11.6247c0,0.13229 0.11575,0.24804 0.2315,0.24804h7.45766c0.11575,0 0.2315,-0.11575 0.2315,-0.24804v-2.3977c0,-0.13229 -0.11575,-0.2315 -0.2315,-0.2315z" data-paper-data="{&quot;glyphName&quot;:&quot;E&quot;,&quot;glyphIndex&quot;:1,&quot;word&quot;:1}"></path><path d="M295.012,286.87315l-2.74495,-4.81193c0.6449,-0.24804 1.15751,-0.62836 1.53783,-1.14097c0.42993,-0.57875 0.6449,-1.2898 0.6449,-2.13312c0,-0.69451 -0.13229,-1.2898 -0.38032,-1.76933c-0.24804,-0.47954 -0.59529,-0.8764 -1.00869,-1.17404c-0.42993,-0.28111 -0.90947,-0.49608 -1.42208,-0.61183c-0.51261,-0.11575 -1.05829,-0.18189 -1.58744,-0.18189h-4.18357c-0.11575,0 -0.21497,0.08268 -0.21497,0.19843v11.72391c0,0.09922 0.09922,0.19843 0.21497,0.19843h2.57959c0.11575,0 0.19843,-0.09922 0.19843,-0.19843v-4.44814h0.57875l2.33155,4.53082c0.03307,0.06614 0.09922,0.11575 0.18189,0.11575h3.0922c0.08268,0 0.14882,-0.04961 0.18189,-0.09922c0.03307,-0.06614 0.03307,-0.14882 0,-0.19843zM291.4568,278.70445c0,0.26457 -0.04961,0.47954 -0.14882,0.62836c-0.11575,0.16536 -0.2315,0.28111 -0.39686,0.38032c-0.16536,0.08268 -0.36379,0.14882 -0.56222,0.18189c-0.21497,0.03307 -0.42993,0.04961 -0.6449,0.04961h-1.07483v-2.36463h1.24019c0.18189,0 0.38032,0.01654 0.57875,0.04961c0.19843,0.01654 0.36379,0.08268 0.51261,0.16536c0.14882,0.08268 0.26457,0.18189 0.34725,0.33072c0.09922,0.14882 0.14882,0.33072 0.14882,0.57875z" data-paper-data="{&quot;glyphName&quot;:&quot;R&quot;,&quot;glyphIndex&quot;:2,&quot;word&quot;:1}"></path><path d="M309.13054,275.05003h-2.84416c-0.09922,0 -0.19843,0.06614 -0.2315,0.16536l-2.24887,7.4742l-2.19927,-7.4742c-0.03307,-0.09922 -0.13229,-0.16536 -0.2315,-0.16536h-2.87724c-0.08268,0 -0.16536,0.03307 -0.19843,0.09922c-0.04961,0.06614 -0.06614,0.14882 -0.03307,0.21497l3.90246,11.64123c0.03307,0.09922 0.13229,0.16536 0.2315,0.16536h2.64573c0.11575,0 0.19843,-0.06614 0.2315,-0.16536l4.06782,-11.64123c0.03307,-0.06614 0.01654,-0.14882 -0.03307,-0.21497c-0.03307,-0.06614 -0.11575,-0.09922 -0.18189,-0.09922z" data-paper-data="{&quot;glyphName&quot;:&quot;V&quot;,&quot;glyphIndex&quot;:3,&quot;word&quot;:1}"></path><path d="M316.91873,275.05003h-2.84416c-0.11575,0 -0.19843,0.08268 -0.19843,0.19843v11.72391c0,0.11575 0.08268,0.19843 0.19843,0.19843h2.84416c0.11575,0 0.19843,-0.08268 0.19843,-0.19843v-11.72391c0,-0.11575 -0.08268,-0.19843 -0.19843,-0.19843z" data-paper-data="{&quot;glyphName&quot;:&quot;I&quot;,&quot;glyphIndex&quot;:4,&quot;word&quot;:1}"></path><path d="M331.75852,285.15343l-1.70319,-1.78587c-0.03307,-0.04961 -0.09922,-0.06614 -0.14882,-0.06614c0,0 0,0 -0.01654,0c-0.04961,0 -0.11575,0.01654 -0.14882,0.06614c-0.19843,0.24804 -0.42993,0.44647 -0.72758,0.61183c-0.33072,0.18189 -0.74411,0.28111 -1.20712,0.28111c-0.4134,0 -0.77718,-0.08268 -1.1079,-0.2315c-0.34725,-0.14882 -0.62836,-0.36379 -0.8764,-0.6449c-0.2315,-0.26457 -0.42993,-0.59529 -0.56222,-0.99215c-0.14882,-0.38032 -0.21497,-0.82679 -0.21497,-1.2898c0,-0.463 0.06614,-0.89294 0.21497,-1.27326c0.13229,-0.38032 0.33072,-0.72758 0.57875,-1.00869c0.2315,-0.26457 0.52915,-0.49608 0.8764,-0.6449c0.34725,-0.16536 0.72758,-0.24804 1.12444,-0.24804c0.38032,0 0.74411,0.08268 1.1079,0.2315c0.26457,0.13229 0.51261,0.29765 0.69451,0.51261c0.04961,0.04961 0.09922,0.08268 0.16536,0.08268v0c0.06614,0 0.11575,-0.03307 0.14882,-0.06614l1.71973,-1.80241c0.03307,-0.04961 0.04961,-0.09922 0.04961,-0.16536c0,-0.06614 -0.01654,-0.11575 -0.04961,-0.16536c-0.44647,-0.463 -1.00869,-0.82679 -1.65358,-1.07483c-0.74411,-0.28111 -1.50476,-0.42993 -2.26541,-0.42993c-0.82679,0 -1.60398,0.14882 -2.31502,0.42993c-0.71104,0.28111 -1.3394,0.67797 -1.86855,1.20712c-0.54568,0.52915 -0.95908,1.17404 -1.25672,1.91816c-0.31418,0.74411 -0.463,1.58744 -0.463,2.49691c0,0.89294 0.14882,1.71973 0.44647,2.46384c0.29765,0.74411 0.71104,1.38901 1.24019,1.91816c0.51261,0.54568 1.14097,0.95908 1.85201,1.25672c0.71104,0.28111 1.48823,0.42993 2.31502,0.42993c0.92601,0 1.7528,-0.16536 2.4473,-0.51261c0.62836,-0.29765 1.15751,-0.69451 1.62051,-1.19058c0.06614,-0.08268 0.06614,-0.2315 -0.01654,-0.31418z" data-paper-data="{&quot;glyphName&quot;:&quot;C&quot;,&quot;glyphIndex&quot;:5,&quot;word&quot;:1}"></path><path d="M343.95702,284.29356h-4.74579v-1.93469h4.21664c0.13229,0 0.2315,-0.11575 0.2315,-0.24804v-2.24887c0,-0.13229 -0.09922,-0.24804 -0.2315,-0.24804h-4.21664v-1.71973h4.48121c0.11575,0 0.21497,-0.09922 0.21497,-0.2315v-2.36463c0,-0.13229 -0.09922,-0.24804 -0.21497,-0.24804h-7.19309c-0.11575,0 -0.2315,0.11575 -0.2315,0.24804v11.6247c0,0.13229 0.11575,0.24804 0.2315,0.24804h7.45766c0.11575,0 0.2315,-0.11575 0.2315,-0.24804v-2.3977c0,-0.13229 -0.11575,-0.2315 -0.2315,-0.2315z" data-paper-data="{&quot;glyphName&quot;:&quot;E&quot;,&quot;glyphIndex&quot;:6,&quot;lastGlyphOfWord&quot;:true,&quot;word&quot;:1}"></path><path d="M364.92659,284.29356h-4.74579v-1.93469h4.21664c0.13229,0 0.2315,-0.11575 0.2315,-0.24804v-2.24887c0,-0.13229 -0.09922,-0.24804 -0.2315,-0.24804h-4.21664v-1.71973h4.48121c0.11575,0 0.21497,-0.09922 0.21497,-0.2315v-2.36463c0,-0.13229 -0.09922,-0.24804 -0.21497,-0.24804h-7.19309c-0.11575,0 -0.2315,0.11575 -0.2315,0.24804v11.6247c0,0.13229 0.11575,0.24804 0.2315,0.24804h7.45766c0.11575,0 0.2315,-0.11575 0.2315,-0.24804v-2.3977c0,-0.13229 -0.11575,-0.2315 -0.2315,-0.2315z" data-paper-data="{&quot;glyphName&quot;:&quot;E&quot;,&quot;glyphIndex&quot;:7,&quot;firstGlyphOfWord&quot;:true,&quot;word&quot;:2}"></path><path d="M379.83475,278.20837c-0.38032,-0.77718 -0.8764,-1.40555 -1.47169,-1.86855c-0.59529,-0.463 -1.2898,-0.79372 -2.06698,-0.99215c-0.74411,-0.19843 -1.5213,-0.29765 -2.29848,-0.29765h-3.91899c-0.11575,0 -0.19843,0.09922 -0.19843,0.19843v11.72391c0,0.11575 0.08268,0.19843 0.19843,0.19843h4.03475c0.76065,0 1.5213,-0.11575 2.26541,-0.34725c0.74411,-0.2315 1.42208,-0.59529 2.01737,-1.09137c0.59529,-0.49608 1.07483,-1.14097 1.43862,-1.91816c0.36379,-0.76065 0.54568,-1.68666 0.54568,-2.72841c0,-1.14097 -0.18189,-2.10005 -0.54568,-2.87724zM372.97238,277.87766h0.95908c0.42993,0 0.85986,0.04961 1.25672,0.14882c0.39686,0.09922 0.76065,0.28111 1.05829,0.52915c0.31418,0.2315 0.56222,0.56222 0.74411,0.95908c0.18189,0.4134 0.28111,0.94254 0.28111,1.5709c0,0.61183 -0.09922,1.14097 -0.28111,1.55437c-0.18189,0.39686 -0.42993,0.72758 -0.74411,0.97561c-0.31418,0.24804 -0.66143,0.42993 -1.07483,0.52915c-0.4134,0.11575 -0.85986,0.18189 -1.30633,0.18189h-0.89294z" data-paper-data="{&quot;glyphName&quot;:&quot;D&quot;,&quot;glyphIndex&quot;:8,&quot;word&quot;:2}"></path><path d="M394.80556,275.05003h-2.61266c-0.11575,0 -0.2315,0.09922 -0.2315,0.2315v6.84584c0,0.29765 -0.03307,0.56222 -0.09922,0.82679c-0.06614,0.24804 -0.16536,0.463 -0.31418,0.66143c-0.13229,0.18189 -0.31418,0.34725 -0.54568,0.44647c-0.21497,0.11575 -0.49608,0.18189 -0.82679,0.18189c-0.33072,0 -0.59529,-0.06614 -0.82679,-0.18189c-0.2315,-0.09922 -0.39686,-0.24804 -0.54568,-0.44647c-0.13229,-0.19843 -0.2315,-0.4134 -0.31418,-0.66143c-0.06614,-0.26457 -0.09922,-0.54568 -0.09922,-0.82679v-6.84584c0,-0.13229 -0.09922,-0.2315 -0.2315,-0.2315h-2.57959c-0.13229,0 -0.24804,0.09922 -0.24804,0.2315v7.07734c0,0.71104 0.11575,1.35594 0.34725,1.95123c0.21497,0.57875 0.54568,1.09137 0.95908,1.5213c0.4134,0.4134 0.92601,0.76065 1.5213,0.99215c0.59529,0.2315 1.27326,0.34725 2.00084,0.34725c0.72758,0 1.40555,-0.11575 2.00084,-0.34725c0.59529,-0.2315 1.12444,-0.57875 1.53783,-0.99215c0.42993,-0.42993 0.76065,-0.94254 0.99215,-1.5213c0.2315,-0.59529 0.34725,-1.24019 0.34725,-1.95123v-7.07734c0,-0.13229 -0.11575,-0.2315 -0.2315,-0.2315z" data-paper-data="{&quot;glyphName&quot;:&quot;U&quot;,&quot;glyphIndex&quot;:9,&quot;word&quot;:2}"></path><path d="M409.98682,285.15343l-1.70319,-1.78587c-0.03307,-0.04961 -0.09922,-0.06614 -0.14882,-0.06614c0,0 0,0 -0.01654,0c-0.04961,0 -0.11575,0.01654 -0.14882,0.06614c-0.19843,0.24804 -0.42993,0.44647 -0.72758,0.61183c-0.33072,0.18189 -0.74411,0.28111 -1.20712,0.28111c-0.4134,0 -0.77718,-0.08268 -1.1079,-0.2315c-0.34725,-0.14882 -0.62836,-0.36379 -0.8764,-0.6449c-0.2315,-0.26457 -0.42993,-0.59529 -0.56222,-0.99215c-0.14882,-0.38032 -0.21497,-0.82679 -0.21497,-1.2898c0,-0.463 0.06614,-0.89294 0.21497,-1.27326c0.13229,-0.38032 0.33072,-0.72758 0.57875,-1.00869c0.2315,-0.26457 0.52915,-0.49608 0.8764,-0.6449c0.34725,-0.16536 0.72758,-0.24804 1.12444,-0.24804c0.38032,0 0.74411,0.08268 1.1079,0.2315c0.26457,0.13229 0.51261,0.29765 0.69451,0.51261c0.04961,0.04961 0.09922,0.08268 0.16536,0.08268v0c0.06614,0 0.11575,-0.03307 0.14882,-0.06614l1.71973,-1.80241c0.03307,-0.04961 0.04961,-0.09922 0.04961,-0.16536c0,-0.06614 -0.01654,-0.11575 -0.04961,-0.16536c-0.44647,-0.463 -1.00869,-0.82679 -1.65358,-1.07483c-0.74411,-0.28111 -1.50476,-0.42993 -2.26541,-0.42993c-0.82679,0 -1.60398,0.14882 -2.31502,0.42993c-0.71104,0.28111 -1.3394,0.67797 -1.86855,1.20712c-0.54568,0.52915 -0.95908,1.17404 -1.25672,1.91816c-0.31418,0.74411 -0.463,1.58744 -0.463,2.49691c0,0.89294 0.14882,1.71973 0.44647,2.46384c0.29765,0.74411 0.71104,1.38901 1.24019,1.91816c0.51261,0.54568 1.14097,0.95908 1.85201,1.25672c0.71104,0.28111 1.48823,0.42993 2.31502,0.42993c0.92601,0 1.7528,-0.16536 2.4473,-0.51261c0.62836,-0.29765 1.15751,-0.69451 1.62051,-1.19058c0.06614,-0.08268 0.06614,-0.2315 -0.01654,-0.31418z" data-paper-data="{&quot;glyphName&quot;:&quot;C&quot;,&quot;glyphIndex&quot;:10,&quot;word&quot;:2}"></path><path d="M426.06451,286.87315l-4.51428,-11.69084c-0.03307,-0.08268 -0.09922,-0.13229 -0.16536,-0.13229h-2.56306c-0.08268,0 -0.14882,0.04961 -0.18189,0.13229l-4.56389,11.70737c-0.01654,0.06614 -0.01654,0.13229 0.01654,0.19843c0.03307,0.04961 0.09922,0.08268 0.16536,0.08268h2.8607c0.08268,0 0.14882,-0.04961 0.18189,-0.13229l0.74411,-2.1662h3.95207l0.81026,2.1662c0.01654,0.08268 0.09922,0.13229 0.16536,0.13229h2.92684v0c0.11575,0 0.19843,-0.08268 0.19843,-0.19843c0,-0.03307 -0.01654,-0.06614 -0.03307,-0.09922zM421.13683,282.19351h-2.19927l1.1079,-3.20795z" data-paper-data="{&quot;glyphName&quot;:&quot;A&quot;,&quot;glyphIndex&quot;:11,&quot;word&quot;:2}"></path><path d="M438.93671,275.05003h-8.764c-0.09922,0 -0.18189,0.08268 -0.18189,0.19843v2.41423c0,0.11575 0.08268,0.19843 0.18189,0.19843h2.81109v9.11125c0,0.09922 0.08268,0.19843 0.19843,0.19843h2.76149c0.11575,0 0.19843,-0.09922 0.19843,-0.19843v-9.11125h2.79456c0.11575,0 0.19843,-0.08268 0.19843,-0.19843v-2.41423c0,-0.11575 -0.08268,-0.19843 -0.19843,-0.19843z" data-paper-data="{&quot;glyphName&quot;:&quot;T&quot;,&quot;glyphIndex&quot;:12,&quot;word&quot;:2}"></path><path d="M447.2596,275.05003h-2.84416c-0.11575,0 -0.19843,0.08268 -0.19843,0.19843v11.72391c0,0.11575 0.08268,0.19843 0.19843,0.19843h2.84416c0.11575,0 0.19843,-0.08268 0.19843,-0.19843v-11.72391c0,-0.11575 -0.08268,-0.19843 -0.19843,-0.19843z" data-paper-data="{&quot;glyphName&quot;:&quot;I&quot;,&quot;glyphIndex&quot;:13,&quot;word&quot;:2}"></path><path d="M463.30927,278.57216c-0.29765,-0.72758 -0.71104,-1.37247 -1.22365,-1.90162c-0.52915,-0.51261 -1.14097,-0.92601 -1.86855,-1.20712c-0.71104,-0.28111 -1.48823,-0.4134 -2.31502,-0.4134c-0.82679,0 -1.60398,0.13229 -2.31502,0.4134c-0.71104,0.28111 -1.3394,0.69451 -1.85201,1.20712c-0.51261,0.52915 -0.92601,1.17404 -1.22365,1.90162c-0.28111,0.74411 -0.42993,1.5709 -0.42993,2.49691c0,0.89294 0.14882,1.73626 0.42993,2.48038c0.29765,0.74411 0.71104,1.40555 1.22365,1.93469c0.51261,0.52915 1.14097,0.95908 1.85201,1.25672c0.71104,0.28111 1.48823,0.42993 2.31502,0.42993c0.82679,0 1.60398,-0.14882 2.33155,-0.42993c0.71104,-0.29765 1.32287,-0.72758 1.85201,-1.25672c0.51261,-0.52915 0.92601,-1.19058 1.22365,-1.93469c0.28111,-0.74411 0.42993,-1.58744 0.42993,-2.48038c0,-0.90947 -0.14882,-1.7528 -0.42993,-2.49691zM458.99341,284.04552c-0.33072,0.14882 -0.69451,0.2315 -1.09137,0.2315c-0.39686,0 -0.76065,-0.08268 -1.09137,-0.2315c-0.33072,-0.16536 -0.61183,-0.38032 -0.84333,-0.66143c-0.24804,-0.28111 -0.42993,-0.61183 -0.56222,-1.00869c-0.14882,-0.39686 -0.21497,-0.84333 -0.21497,-1.30633c0,-0.463 0.06614,-0.89294 0.19843,-1.27326c0.13229,-0.39686 0.31418,-0.72758 0.56222,-0.99215c0.2315,-0.28111 0.52915,-0.49608 0.85986,-0.66143c0.33072,-0.14882 0.69451,-0.2315 1.09137,-0.2315c0.39686,0 0.77718,0.08268 1.1079,0.2315c0.33072,0.16536 0.61183,0.38032 0.84333,0.6449c0.24804,0.28111 0.42993,0.61183 0.56222,1.00869c0.13229,0.38032 0.21497,0.81026 0.21497,1.27326c0,0.463 -0.08268,0.90947 -0.21497,1.30633c-0.13229,0.39686 -0.33072,0.72758 -0.56222,1.00869c-0.24804,0.28111 -0.52915,0.49608 -0.85986,0.66143z" data-paper-data="{&quot;glyphName&quot;:&quot;O&quot;,&quot;glyphIndex&quot;:14,&quot;word&quot;:2}"></path><path d="M478.17709,275.05003h-2.46384c-0.18189,0 -0.33072,0.14882 -0.33072,0.33072v5.83715l-3.88592,-5.93637c-0.03307,-0.13229 -0.16536,-0.2315 -0.31418,-0.2315h-2.46384c-0.18189,0 -0.33072,0.14882 -0.33072,0.33072v11.45934c0,0.18189 0.14882,0.33072 0.33072,0.33072h2.46384c0.18189,0 0.33072,-0.14882 0.33072,-0.33072v-5.82062l3.90246,5.96944c0.06614,0.11575 0.16536,0.18189 0.29765,0.18189h2.46384c0.18189,0 0.33072,-0.14882 0.33072,-0.33072v-11.45934c0,-0.18189 -0.14882,-0.33072 -0.33072,-0.33072z" data-paper-data="{&quot;glyphName&quot;:&quot;N&quot;,&quot;glyphIndex&quot;:15,&quot;lastGlyphOfWord&quot;:true,&quot;word&quot;:2}"></path></g><g data-paper-data="{&quot;isPrimaryText&quot;:true}" fill="#000000"><path d="M301.72509,196.92818h-28.80302v59.01352h-13.06943v-59.01352h-28.85329v-13.06943h70.72575z" data-paper-data="{&quot;glyphName&quot;:&quot;T&quot;,&quot;glyphIndex&quot;:0,&quot;firstGlyphOfWord&quot;:true,&quot;word&quot;:1}"></path><path d="M395.22181,255.9417h-13.16997v-42.92807l-23.17311,40.76658c-0.56969,1.03885 -1.36559,1.82637 -2.38769,2.36255c-1.0221,0.53618 -2.11959,0.80427 -3.29249,0.80427c-1.13939,0 -2.20337,-0.26809 -3.19196,-0.80427c-0.98859,-0.53618 -1.76772,-1.3237 -2.33742,-2.36255l-23.27365,-40.76658v42.92807h-13.06943v-66.50332c0,-1.50801 0.44403,-2.84847 1.33208,-4.02136c0.88805,-1.1729 2.05257,-1.96042 3.49356,-2.36255c0.70374,-0.16756 1.40748,-0.2262 2.11122,-0.17593c0.70374,0.05027 1.38234,0.20107 2.03582,0.4524c0.65347,0.25134 1.2483,0.6032 1.78448,1.05561c0.53618,0.4524 0.98859,0.99696 1.35721,1.63368l29.7581,51.7248l29.7581,-51.7248c0.77076,-1.27343 1.83475,-2.17824 3.19196,-2.71442c1.35721,-0.53618 2.77307,-0.61996 4.24757,-0.25134c1.40748,0.40214 2.56362,1.18965 3.46843,2.36255c0.90481,1.1729 1.35721,2.51335 1.35721,4.02136z" data-paper-data="{&quot;glyphName&quot;:&quot;M&quot;,&quot;glyphIndex&quot;:1,&quot;word&quot;:1}"></path><path d="M482.33462,240.10758c0,1.60855 -0.27647,3.33438 -0.82941,5.17751c-0.55294,1.84313 -1.45774,3.55221 -2.71442,5.12724c-1.25668,1.57503 -2.89036,2.89036 -4.90104,3.94596c-2.01068,1.05561 -4.47377,1.58341 -7.38926,1.58341h-49.61358c-0.93832,0 -1.80961,-0.16756 -2.61389,-0.50267c-0.80427,-0.33511 -1.49963,-0.7959 -2.08608,-1.38234c-0.58645,-0.58645 -1.04723,-1.28181 -1.38234,-2.08608c-0.33511,-0.80427 -0.50267,-1.67557 -0.50267,-2.61389v-58.91299c0,-0.90481 0.16756,-1.75935 0.50267,-2.56362c0.33511,-0.80427 0.7959,-1.50801 1.38234,-2.11122c0.58645,-0.6032 1.28181,-1.07236 2.08608,-1.40748c0.80427,-0.33511 1.67557,-0.50267 2.61389,-0.50267h43.73234c1.60855,0 3.33438,0.28485 5.17751,0.85454c1.84313,0.56969 3.56058,1.48288 5.15237,2.73955c1.59179,1.25668 2.91549,2.89036 3.9711,4.90104c1.05561,2.01068 1.58341,4.47377 1.58341,7.38926v2.46309c0,2.31228 -0.38538,4.8005 -1.15614,7.46466c-0.77076,2.66415 -2.01068,5.18588 -3.71976,7.56519c1.4745,0.90481 2.85684,1.99393 4.14703,3.26736c1.29019,1.27343 2.4212,2.74793 3.39303,4.4235c0.97183,1.67557 1.74259,3.56896 2.31228,5.68018c0.56969,2.11122 0.85454,4.44026 0.85454,6.98712zM469.26519,237.59423c0,-1.70908 -0.26809,-3.24223 -0.80427,-4.59944c-0.53618,-1.35721 -1.29019,-2.52173 -2.26202,-3.49356c-0.97183,-0.97183 -2.14473,-1.71746 -3.51869,-2.23688c-1.37397,-0.51943 -2.91549,-0.77914 -4.62457,-0.77914h-29.4565v-13.16997h23.57525c1.70908,0 3.2506,-0.25971 4.62457,-0.77914c1.37397,-0.51943 2.54686,-1.26505 3.51869,-2.23688c0.97183,-0.97183 1.71746,-2.13635 2.23688,-3.49356c0.51943,-1.35721 0.77914,-2.89036 0.77914,-4.59944v-2.46309c0,-1.87664 -0.90481,-2.81496 -2.71442,-2.81496h-37.24789v45.94409h43.12913c0.23458,0 0.51943,-0.01676 0.85454,-0.05027c0.33511,-0.03351 0.63672,-0.13405 0.90481,-0.3016c0.26809,-0.16756 0.50267,-0.4524 0.70374,-0.85454c0.20107,-0.40214 0.3016,-0.95507 0.3016,-1.65881z" data-paper-data="{&quot;glyphName&quot;:&quot;B&quot;,&quot;glyphIndex&quot;:2,&quot;lastGlyphOfWord&quot;:true,&quot;word&quot;:1}"></path></g><g data-paper-data="{&quot;fillRule&quot;:&quot;nonzero&quot;,&quot;initialText&quot;:&quot;T&quot;,&quot;selectedEffects&quot;:{&quot;container&quot;:&quot;hexagon_baseline_outline3_rounded_upright&quot;,&quot;transformation&quot;:&quot;&quot;,&quot;pattern&quot;:&quot;&quot;},&quot;relativeBoundsIconToContainer&quot;:{&quot;top&quot;:&quot;0.04993221314882781&quot;,&quot;left&quot;:&quot;0.0004234888168293974&quot;},&quot;widthRatioIconToContainer&quot;:&quot;0.6598752630064975&quot;,&quot;heightRatioIconToContainer&quot;:&quot;0.6231618088601939&quot;,&quot;bounds&quot;:{&quot;x&quot;:67.6653801831367,&quot;y&quot;:182.82920142743663,&quot;width&quot;:94.22241627143555,&quot;height&quot;:104.34159714512671},&quot;isIcon&quot;:&quot;true&quot;,&quot;iconType&quot;:&quot;initial&quot;,&quot;iconStyle&quot;:&quot;standalone&quot;,&quot;rawInitialId&quot;:&quot;706&quot;}" fill="#0076a8"><path d="M108.68925,213.83161h-9.47727c-4.07326,0 -7.43486,0.90838 -10.08478,2.72515c-2.64993,1.81677 -4.44934,3.96333 -5.39823,6.43968l1.97877,-12.0462h58.21751l1.97877,12.0462c-0.92574,-2.47636 -2.71936,-4.62291 -5.38086,-6.43968c-2.6615,-1.81677 -6.01731,-2.72515 -10.06743,-2.72515h-9.51198v53.75777h23.82711l7.44689,-4.29944c3.8527,-2.22458 5.77906,-5.56127 5.77906,-10.01007v-36.55979c0,-4.44888 -1.92635,-7.78553 -5.77906,-10.00997l-31.66188,-18.2799c-3.85284,-2.22444 -7.70567,-2.22444 -11.55848,0l-31.66172,18.2799c-3.85284,2.22444 -5.77927,5.56109 -5.77927,10.00997v36.55979c0,4.4488 1.92642,7.7855 5.77927,10.01007l7.44685,4.29944h23.90674zM108.99738,281.56984c3.85281,2.22423 7.70564,2.22423 11.55848,0l17.24938,-9.95888h-46.05715zM107.70992,184.86183c4.71112,-2.71017 9.42224,-2.71017 14.13336,0l32.97784,18.9712c2.03235,1.16915 3.62633,2.59049 4.78193,4.26401c0.71326,1.06732 1.26855,2.22585 1.66586,3.47558c0.41259,1.36672 0.61888,2.85211 0.61888,4.45618v37.9424c0,1.60393 -0.20626,3.08922 -0.61878,4.45583c-0.39745,1.25026 -0.953,2.40924 -1.66665,3.47692c-1.15555,1.67309 -2.7493,3.09409 -4.78125,4.26301l-32.97784,18.9712c-4.71112,2.71017 -9.42224,2.71017 -14.13336,0l-32.97784,-18.9712c-2.03077,-1.16825 -3.62385,-2.58828 -4.77924,-4.26011c-0.71485,-1.06884 -1.27119,-2.22921 -1.66904,-3.48108c-0.41227,-1.36628 -0.6184,-2.85114 -0.6184,-4.45458v-37.9424c0,-1.60358 0.20617,-3.08856 0.61851,-4.45493c0.39771,-1.25135 0.9538,-2.41126 1.66825,-3.47974c1.15544,-1.67226 2.74875,-3.09262 4.77992,-4.2611z" data-paper-data="{&quot;isPathIcon&quot;:true}" opacity="0.65"></path></g><path d="M189.53241,287.1708v-104.3416h2.28957v104.3416z" data-paper-data="{&quot;isShapeTextSeparator&quot;:true}" fill="#000000"></path></g></g></svg>